<?xml version="1.0" encoding="iso-8859-1"?>
<!-- Uploaded to: SVG Repo, www.svgrepo.com, Generator: SVG Repo Mixer Tools -->
<svg fill="#000000" height="800px" width="800px" version="1.1" id="Layer_1" xmlns="http://www.w3.org/2000/svg" xmlns:xlink="http://www.w3.org/1999/xlink" 
	 viewBox="0 0 512 512" xml:space="preserve">
<g>
	<g>
		<g>
			<path d="M480,341.334h-53.333v-32c0-5.888-4.779-10.667-10.667-10.667H288c-5.888,0-10.667,4.779-10.667,10.667v32H170.667v-160
				c0-5.888-4.779-10.667-10.667-10.667h-6.528l16.64-49.963c0.363-1.088,0.555-2.219,0.555-3.371V74.667
				C170.667,68.779,165.888,64,160,64h-53.333V10.667C106.667,4.779,101.888,0,96,0S85.333,4.779,85.333,10.667V64H32
				c-5.888,0-10.667,4.779-10.667,10.667v42.667c0,1.152,0.192,2.283,0.555,3.371l16.64,49.963H32
				c-5.888,0-10.667,4.779-10.667,10.667v160H10.667C4.779,341.334,0,346.112,0,352v149.333C0,507.222,4.779,512,10.667,512h352
				V394.667c0-5.888,4.779-10.667,10.667-10.667h64c5.888,0,10.667,4.779,10.667,10.667V512h32c5.888,0,10.667-4.779,10.667-10.667
				V352C490.667,346.112,485.888,341.334,480,341.334z M106.667,437.334c0,5.888-4.779,10.667-10.667,10.667H53.333
				c-5.888,0-10.667-4.779-10.667-10.667v-42.667c0-5.888,4.779-10.667,10.667-10.667H96c5.888,0,10.667,4.779,10.667,10.667
				V437.334z M128,266.667c0,5.888-4.779,10.667-10.667,10.667H74.667c-5.888,0-10.667-4.779-10.667-10.667V224
				c0-5.888,4.779-10.667,10.667-10.667h42.667c5.888,0,10.667,4.779,10.667,10.667V266.667z M117.333,128H74.667
				C68.779,128,64,123.222,64,117.334s4.779-10.667,10.667-10.667h42.667c5.888,0,10.667,4.779,10.667,10.667
				S123.221,128,117.333,128z M213.333,437.334c0,5.888-4.779,10.667-10.667,10.667H160c-5.888,0-10.667-4.779-10.667-10.667
				v-42.667c0-5.888,4.779-10.667,10.667-10.667h42.667c5.888,0,10.667,4.779,10.667,10.667V437.334z M320,437.334
				c0,5.888-4.779,10.667-10.667,10.667h-42.667c-5.888,0-10.667-4.779-10.667-10.667v-42.667c0-5.888,4.779-10.667,10.667-10.667
				h42.667c5.888,0,10.667,4.779,10.667,10.667V437.334z"/>
			<path d="M503.957,95.04c-17.493-11.968-36.075-13.44-54.293-4.587l-60.459,28.416l-1.792,1.067l-37.419-19.563
				c-15.637-10.411-33.515-15.936-52.011-15.936h-0.021l-31.573,0.896c-4.544,0.128-8.491,3.115-9.856,7.445
				c-1.365,4.331,0.128,9.045,3.776,11.755l66.411,49.792l-52.267,27.157c-6.464-0.619-25.152-5.184-34.453-7.467
				c-12.032-2.923-13.888-3.349-16-3.349h-21.333c-4.501,0-8.533,2.837-10.048,7.083c-1.515,4.245-0.192,8.981,3.307,11.84
				c9.536,7.787,58.475,46.635,85.44,46.635c4.587,0,8.64-1.024,11.477-2.709l211.349-107.456c4.928-3.456,7.851-9.259,7.808-15.531
				C511.979,104.278,508.971,98.496,503.957,95.04z"/>
		</g>
	</g>
</g>
</svg>